<?xml version="1.0" standalone="no"?>
<!DOCTYPE svg PUBLIC "-//W3C//DTD SVG 20010904//EN"
 "http://www.w3.org/TR/2001/REC-SVG-20010904/DTD/svg10.dtd">
<svg version="1.0" xmlns="http://www.w3.org/2000/svg"
 width="899.000000pt" height="899.000000pt" viewBox="0 0 899.000000 899.000000"
 preserveAspectRatio="xMidYMid meet">
<metadata>
Created by potrace 1.14, written by Peter Selinger 2001-2017
</metadata>
<g transform="translate(0.000000,899.000000) scale(0.100000,-0.100000)"
fill="#000000" stroke="none">
<path d="M4279 8979 c-1452 -66 -2791 -842 -3575 -2074 -104 -162 -165 -273
-263 -477 -437 -904 -551 -1944 -325 -2943 127 -558 382 -1124 719 -1595 564
-787 1354 -1368 2262 -1664 956 -311 2018 -292 2949 55 700 260 1328 691 1818
1249 497 565 848 1253 1010 1980 80 362 101 559 101 985 0 366 -9 488 -56 755
-109 631 -343 1217 -697 1745 -321 478 -741 900 -1217 1221 -594 401 -1237
642 -1956 734 -123 16 -576 45 -599 38 -3 0 -80 -4 -171 -9z m2735 -2100 c26
-6 63 -28 93 -54 115 -100 110 -271 -16 -620 -122 -335 -392 -716 -740 -1045
-182 -171 -180 -177 62 -189 159 -8 171 -10 231 -40 84 -41 156 -116 224 -231
l56 -95 4 -102 c4 -101 3 -106 -43 -245 -171 -512 -416 -922 -806 -1350 -128
-140 -165 -173 -282 -252 -181 -122 -283 -162 -401 -154 -39 3 -86 12 -103 22
-123 63 -182 194 -148 328 50 195 183 367 599 775 309 304 645 588 866 735 47
31 96 71 109 89 75 101 -1 265 -156 336 -73 34 -191 41 -328 19 -130 -20 -208
-46 -325 -108 -207 -111 -236 -121 -281 -97 -37 19 -42 57 -15 103 23 40 163
174 276 266 109 88 266 227 374 330 200 190 306 317 461 554 213 324 348 703
291 815 -20 38 -74 64 -114 55 -54 -13 -219 -105 -307 -171 -382 -288 -802
-910 -1365 -2028 -207 -411 -315 -637 -420 -880 -53 -124 -124 -237 -156 -249
-47 -18 -100 9 -131 67 -49 93 6 661 118 1222 78 390 159 682 318 1155 60 179
141 429 180 555 56 183 76 235 96 253 33 28 62 28 92 0 48 -45 36 -99 -182
-763 -85 -258 -170 -526 -190 -595 -104 -361 -192 -772 -245 -1150 -34 -248
-38 -290 -24 -290 28 0 64 50 109 150 76 169 403 826 530 1065 518 975 950
1522 1386 1754 121 65 213 83 303 60z m-2590 -23 c18 -7 44 -29 57 -47 37 -52
33 -159 -13 -384 -78 -378 -88 -424 -123 -570 -213 -883 -304 -1507 -306
-2095 -1 -425 61 -717 182 -855 56 -64 111 -80 171 -49 61 31 118 -22 118
-112 0 -28 -8 -44 -35 -71 -35 -35 -37 -36 -104 -31 -89 7 -155 42 -241 129
-80 81 -133 169 -165 274 -96 315 -113 755 -50 1360 27 264 29 329 11 344 -9
7 -73 19 -142 27 -161 18 -347 56 -488 100 -112 35 -213 51 -232 37 -6 -4 -24
-28 -41 -53 -37 -55 -591 -988 -728 -1225 -323 -562 -421 -714 -622 -959 -84
-102 -146 -138 -226 -133 -49 3 -62 8 -92 37 -94 91 -117 350 -49 556 29 90
54 135 91 164 43 34 130 22 153 -20 20 -37 5 -64 -49 -87 -47 -20 -51 -24 -66
-76 -33 -115 -36 -290 -6 -369 14 -36 49 -37 91 -2 50 43 222 270 318 420 91
143 143 232 669 1149 171 297 322 558 337 579 14 21 26 51 26 67 0 24 -6 30
-57 49 -239 90 -563 124 -720 76 -70 -22 -123 -72 -123 -117 0 -27 10 -42 55
-84 60 -56 65 -69 36 -85 -51 -26 -127 8 -167 76 -33 56 -36 138 -7 183 37 59
135 122 228 148 123 34 194 34 383 3 97 -16 232 -41 299 -55 174 -36 171 -36
231 36 28 34 65 88 84 121 65 115 495 765 588 888 105 140 111 147 366 420
139 150 194 202 235 223 60 31 76 33 123 13z"/>
<path d="M6589 4143 c-187 -128 -572 -457 -754 -645 -235 -241 -454 -498 -494
-578 -49 -97 -46 -189 7 -231 62 -49 219 1 382 121 100 75 330 302 420 415
145 183 302 441 437 715 75 152 96 227 67 237 -6 2 -35 -13 -65 -34z"/>
<path d="M4187 6513 c-255 -267 -281 -300 -671 -880 -322 -478 -336 -500 -336
-536 0 -24 7 -28 83 -51 241 -74 400 -106 520 -106 98 0 164 16 182 44 13 21
138 537 230 951 26 116 65 283 87 373 24 96 41 189 41 230 2 62 0 67 -20 70
-17 3 -44 -20 -116 -95z"/>
</g>
</svg>
