<?xml version="1.0" encoding="UTF-8"?>
<svg width="366px" height="74px" viewBox="0 0 366 74" version="1.1" xmlns="http://www.w3.org/2000/svg" xmlns:xlink="http://www.w3.org/1999/xlink">
    <title>167BA235-03FB-4884-A6FA-684B27A14C6C</title>
    <defs>
        <polygon id="path-1" points="0 0 55 0 55 58 0 58"></polygon>
    </defs>
    <g id="Logos" stroke="none" stroke-width="1" fill="none" fill-rule="evenodd">
        <g id="logos" transform="translate(-103.000000, -92.000000)">
            <g id="logo_sc_seguros" transform="translate(103.000000, 92.000000)">
                <path d="M77.0978414,70 C76.1456526,70 75.3003833,69.8622881 74.5600161,69.5847458 C73.8176316,69.3050847 73.1115594,68.8474576 72.4357474,68.2076271 C72.2904983,68.0974576 72.1815614,67.9618644 72.1089369,67.8029661 C72.0363123,67.6419492 72,67.4788136 72,67.3135593 C72,67.0487288 72.0927981,66.8114407 72.2763768,66.6038136 C72.461973,66.3961864 72.6939681,66.2902542 72.9723623,66.2902542 C73.184184,66.2902542 73.3818842,66.3686441 73.5674803,66.5211864 C74.0698003,67.0084746 74.5943111,67.375 75.1450474,67.625 C75.6937664,67.875 76.3373008,68 77.0796853,68 C77.6082308,68 78.0944119,67.9088983 78.5362114,67.7288136 C78.9800282,67.5487288 79.3330644,67.3050847 79.5993544,67 C79.8616098,66.6949153 79.9947549,66.3389831 79.9947549,65.9364407 C79.9947549,65.4385593 79.8595925,65.0233051 79.5892677,64.6970339 C79.3169256,64.3707627 78.9275772,64.1016949 78.4171878,63.8855932 C77.9088158,63.6694915 77.297559,63.4851695 76.5834174,63.3326271 C75.9217269,63.2076271 75.3286262,63.0338983 74.8081501,62.8114407 C74.2836393,62.5889831 73.8378051,62.309322 73.4686302,61.9682203 C73.097438,61.6271186 72.8129917,61.2224576 72.6132742,60.75 C72.4175913,60.2775424 72.3167238,59.7288136 72.3167238,59.1038136 C72.3167238,58.2563559 72.5285455,57.5275424 72.9521888,56.9152542 C73.3758322,56.3050847 73.9487593,55.8326271 74.6770224,55.4978814 C75.4052855,55.1652542 76.2243292,55 77.1381884,55 C77.9713536,55 78.7520678,55.1334746 79.4803308,55.404661 C80.2065766,55.6758475 80.7936252,56.0402542 81.2455114,56.5 C81.5622352,56.7902542 81.7216058,57.1038136 81.7216058,57.4364407 C81.7216058,57.6864407 81.624773,57.9194915 81.4331249,58.1355932 C81.2414767,58.3495763 81.0195683,58.4576271 80.7673996,58.4576271 C80.5838209,58.4576271 80.4244503,58.4004237 80.2933226,58.2902542 C80.0794836,58.0550847 79.7970547,57.8432203 79.4399839,57.654661 C79.0829131,57.4661017 78.7016341,57.3114407 78.2981642,57.1864407 C77.8946944,57.0614407 77.5073633,56.9978814 77.1381884,56.9978814 C76.5430704,56.9978814 76.0346984,57.0868644 75.6110551,57.2584746 C75.1874117,57.434322 74.8626185,57.6694915 74.6366754,57.9682203 C74.4127496,58.2669492 74.2997781,58.6165254 74.2997781,59.0190678 C74.2997781,59.4936441 74.4309058,59.8813559 74.6871091,60.1864407 C74.9453298,60.4915254 75.3064353,60.7394068 75.7684083,60.9258475 C76.2323986,61.1144068 76.7609441,61.2838983 77.3560621,61.4364407 C78.0843252,61.6038136 78.7339116,61.7923729 79.3108735,62 C79.885818,62.2076271 80.3719992,62.4745763 80.7673996,62.8008475 C81.1648174,63.1271186 81.4694372,63.5338983 81.6812588,64.0190678 C81.8930805,64.5063559 82,65.1122881 82,65.8326271 C82,66.6652542 81.7740569,67.3961864 81.324188,68.0211864 C80.8743191,68.6461864 80.2812185,69.1334746 79.5489207,69.4788136 C78.8146056,69.8262712 77.9975792,70 77.0978414,70" id="Fill-1" fill="#00D990"></path>
                <path d="M89.4847305,70 C88.3676983,70 87.4023365,69.769345 86.5824964,69.3080349 C85.7626563,68.8467248 85.1272802,68.209872 84.6763681,67.3995175 C84.225456,66.5912043 84,65.6645018 84,64.6194099 C84,63.4436816 84.2398032,62.4353312 84.7173601,61.5984413 C85.194917,60.7635925 85.8159459,60.1206161 86.5824964,59.6715532 C87.3469973,59.2245315 88.1606887,59 89.0215208,59 C89.6794425,59 90.3045706,59.1306365 90.8948555,59.3898683 C91.48719,59.6531824 92.0139373,60.0144739 92.4791966,60.4737428 C92.9403566,60.9370941 93.3072351,61.480052 93.5757327,62.1005752 C93.8442304,62.7231397 93.9856528,63.4028577 94,64.1397291 C93.9856528,64.4071256 93.8790736,64.6275747 93.6761631,64.8010763 C93.4753023,64.976619 93.2395983,65.0623492 92.9711006,65.0623492 L85.1293298,65.0623492 L84.6476737,63.3559102 L92.2250461,63.3559102 L91.8417709,63.7172017 L91.8417709,63.2150677 C91.8151261,62.7476341 91.661406,62.3353127 91.3785612,61.9801447 C91.0977659,61.627018 90.7472843,61.3514567 90.3312154,61.1575431 C89.9130969,60.9636296 89.4765321,60.8676934 89.0215208,60.8676934 C88.6177495,60.8676934 88.2303751,60.9309705 87.8634966,61.0575246 C87.4904694,61.1861199 87.1625333,61.3881982 86.8735397,61.6698831 C86.584546,61.951568 86.3549908,62.3210243 86.1889732,62.7843756 C86.0209059,63.2456857 85.9368723,63.8172203 85.9368723,64.5010206 C85.9368723,65.2358508 86.0905923,65.8788272 86.400082,66.4258675 C86.7095716,66.9769902 87.1256405,67.3995175 87.6503382,67.7016144 C88.1729863,68.0037113 88.7509736,68.1547597 89.3843001,68.1547597 C89.8803033,68.1547597 90.2902234,68.1037298 90.6120107,68.0037113 C90.9358475,67.9036927 91.2043452,67.7791798 91.4195532,67.6322138 C91.6347612,67.4852477 91.8233245,67.3444053 91.9852429,67.2096864 C92.1861037,67.0892559 92.3869645,67.0300612 92.589875,67.0300612 C92.8296782,67.0300612 93.0325886,67.1137502 93.1924575,67.2811282 C93.3543759,67.4485062 93.4363599,67.6444609 93.4363599,67.8710336 C93.4363599,68.1670069 93.2867391,68.4344034 92.9915966,68.6752644 C92.6288174,69.0222676 92.1287149,69.330488 91.4892396,69.5999258 C90.8518139,69.8673223 90.1836442,70 89.4847305,70" id="Fill-3" fill="#00D990"></path>
                <path d="M101.009758,60.87035 C100.383294,60.87035 99.832943,61.0336181 99.3587041,61.3580876 C98.8864169,61.6825572 98.5156128,62.1227611 98.246292,62.6786994 C97.9769711,63.2346376 97.8442623,63.8649766 97.8442623,64.5697162 C97.8442623,65.2744558 97.9769711,65.9047947 98.246292,66.4586663 C98.5156128,67.0146046 98.8864169,67.4568752 99.3587041,67.7813447 C99.832943,68.1058143 100.383294,68.2690824 101.009758,68.2690824 C101.638173,68.2690824 102.186573,68.1099476 102.660812,67.7916781 C103.133099,67.4734087 103.505855,67.0311381 103.775176,66.4689997 C104.042545,65.9068614 104.177205,65.2744558 104.177205,64.5697162 C104.177205,63.8649766 104.042545,63.232571 103.775176,62.6683659 C103.505855,62.1062276 103.133099,61.6660237 102.660812,61.3477542 C102.186573,61.0294847 101.638173,60.87035 101.009758,60.87035 M100.720921,59 C101.273224,59 101.776737,59.0950675 102.239266,59.2852025 C102.699844,59.4753376 103.099922,59.715073 103.437549,60.0064756 C103.777127,60.2978782 104.042545,60.5996142 104.233802,60.909617 C104.42701,61.2237531 104.522639,61.4944888 104.522639,61.7238909 L104.081577,61.7445577 L104.081577,60.1180766 C104.081577,59.8328741 104.169399,59.5890052 104.350898,59.3864701 C104.528493,59.183935 104.758782,59.0806007 105.041764,59.0806007 C105.320843,59.0806007 105.551132,59.1798016 105.732631,59.3761367 C105.910226,59.5724718 106,59.820474 106,60.1180766 L106,69.0812896 C106,70.2324332 105.769711,71.1707082 105.309133,71.8961146 C104.848556,72.6215211 104.237705,73.1526591 103.476581,73.4915955 C102.715457,73.8305318 101.880172,74 100.972678,74 C100.652615,74 100.274005,73.9565996 99.8387978,73.8677322 C99.4035909,73.7809314 99.0054645,73.6734638 98.6405152,73.553596 C98.275566,73.4316616 98.0218579,73.3076605 97.8813427,73.1877928 C97.5866511,73.0245247 97.391491,72.8343896 97.2958626,72.6173877 C97.2002342,72.4003858 97.196331,72.1854505 97.2861046,71.9663819 C97.4149102,71.6687793 97.5866511,71.486911 97.8052303,71.4187104 C98.0218579,71.3505098 98.2716628,71.3711766 98.5526932,71.4786443 C98.6814988,71.519978 98.8805621,71.5943786 99.1479313,71.7039129 C99.4172521,71.8113805 99.7177986,71.9105814 100.049571,71.9994489 C100.383294,72.0862497 100.69555,72.12965 100.990242,72.12965 C102.014832,72.12965 102.785714,71.8795812 103.302888,71.3773767 C103.822014,70.8772389 104.081577,70.1931662 104.081577,69.3251584 L104.081577,67.4961422 L104.29235,67.6387435 C104.253318,67.9218793 104.13427,68.2112152 103.937158,68.5026178 C103.738095,68.7940204 103.478532,69.0606228 103.15847,69.3044916 C102.840359,69.5483604 102.471507,69.7488289 102.055816,69.9038303 C101.640125,70.0608983 101.214676,70.1373657 100.779469,70.1373657 C99.8700234,70.1373657 99.0581577,69.8976302 98.3419204,69.4181593 C97.6256831,68.9366217 97.0558158,68.2794158 96.6342701,67.4444751 C96.2107728,66.611601 96,65.6526591 96,64.5697162 C96,63.4847065 96.2107728,62.5257647 96.6342701,61.6928906 C97.0558158,60.8600165 97.6237315,60.2028107 98.3321624,59.7212731 C99.0425449,59.2397355 99.8387978,59 100.720921,59" id="Fill-5" fill="#00D990"></path>
                <path d="M116.981366,59 C117.267081,59 117.507246,59.1003421 117.703934,59.2968453 C117.902692,59.4975295 118,59.7483846 118,60.0494109 L118,65.4553402 C118,66.8810338 117.606625,67.995249 116.817805,68.7958951 C116.031056,69.5965412 114.919255,70 113.480331,70 C112.05383,70 110.952381,69.5965412 110.171843,68.7958951 C109.389234,67.995249 109,66.8810338 109,65.4553402 L109,60.0494109 C109,59.7483846 109.095238,59.4975295 109.285714,59.2968453 C109.47412,59.1003421 109.718427,59 110.018634,59 C110.302277,59 110.544513,59.1003421 110.741201,59.2968453 C110.937888,59.4975295 111.035197,59.7483846 111.035197,60.0494109 L111.035197,65.4553402 C111.035197,66.3458761 111.242236,67.0106423 111.658385,67.4496389 C112.070393,67.8886355 112.679089,68.1081338 113.480331,68.1081338 C114.293996,68.1081338 114.910973,67.8886355 115.333333,67.4496389 C115.753623,67.0106423 115.962733,66.3458761 115.962733,65.4553402 L115.962733,60.0494109 C115.962733,59.7483846 116.057971,59.4975295 116.248447,59.2968453 C116.438923,59.1003421 116.68323,59 116.981366,59" id="Fill-7" fill="#00D990"></path>
                <path d="M122.064277,70 C121.750618,70 121.497528,69.9002079 121.298517,69.7027027 C121.099506,69.5051975 121,69.2557173 121,68.956341 L121,60.2889813 C121,59.989605 121.099506,59.7401247 121.298517,59.5405405 C121.497528,59.3451143 121.750618,59.2453222 122.064277,59.2453222 C122.362794,59.2453222 122.613721,59.3451143 122.819221,59.5405405 C123.022559,59.7401247 123.128554,59.989605 123.128554,60.2889813 L123.128554,62.5779626 L122.9144,61.6985447 C123.029048,61.3180873 123.202101,60.962578 123.435723,60.6361746 C123.669345,60.3097713 123.948393,60.022869 124.277194,59.7775468 C124.601669,59.5322245 124.967244,59.3409563 125.371755,59.2037422 C125.776267,59.0686071 126.198084,59 126.637206,59 C127.004944,59 127.325093,59.0956341 127.595488,59.2869023 C127.863721,59.4781705 128,59.7172557 128,60.002079 C128,60.3700624 127.900494,60.6382536 127.701483,60.8087318 C127.502472,60.981289 127.281829,61.0644491 127.041718,61.0644491 C126.829728,61.0644491 126.622064,61.02079 126.425216,60.9334719 C126.226205,60.8440748 125.992583,60.8004158 125.722188,60.8004158 C125.425834,60.8004158 125.118665,60.8731809 124.807169,61.024948 C124.495674,61.1746362 124.212299,61.3950104 123.957046,61.6881497 C123.701792,61.981289 123.498455,62.3264033 123.35136,62.7214137 C123.202101,63.1164241 123.128554,63.5592516 123.128554,64.049896 L123.128554,68.956341 C123.128554,69.2557173 123.022559,69.5051975 122.819221,69.7027027 C122.613721,69.9002079 122.362794,70 122.064277,70" id="Fill-9" fill="#00D990"></path>
                <path d="M137.927231,64.5193914 C137.927231,63.7845611 137.775565,63.1456671 137.472233,62.6027092 C137.168901,62.0617925 136.758139,61.6331416 136.239946,61.3187976 C135.721754,61.0044535 135.144581,60.8472815 134.510532,60.8472815 C133.874378,60.8472815 133.295098,61.0044535 132.76848,61.3187976 C132.243968,61.6331416 131.831099,62.0617925 131.525661,62.6027092 C131.222329,63.1456671 131.070663,63.7845611 131.070663,64.5193914 C131.070663,65.2297272 131.222329,65.8584153 131.525661,66.4074968 C131.831099,66.9565782 132.243968,67.3852292 132.76848,67.6914084 C133.295098,67.9996289 133.874378,68.1547597 134.510532,68.1547597 C135.144581,68.1547597 135.721754,67.9996289 136.239946,67.6914084 C136.758139,67.3852292 137.168901,66.9565782 137.472233,66.4074968 C137.775565,65.8584153 137.927231,65.2297272 137.927231,64.5193914 M140,64.5193914 C140,65.5910187 139.757756,66.536092 139.275373,67.3607348 C138.790885,68.1833364 138.135772,68.8303952 137.305822,69.2978289 C136.477978,69.7652626 135.54481,70 134.510532,70 C133.472041,70 132.54098,69.7652626 131.713137,69.2978289 C130.883187,68.8303952 130.225967,68.1833364 129.735159,67.3607348 C129.244351,66.536092 129,65.5910187 129,64.5193914 C129,63.4355168 129.244351,62.4822787 129.735159,61.6596771 C130.225967,60.8370755 130.883187,60.1879755 131.713137,59.7123771 C132.54098,59.2367786 133.472041,59 134.510532,59 C135.54481,59 136.477978,59.2367786 137.305822,59.7123771 C138.135772,60.1879755 138.790885,60.8370755 139.275373,61.6596771 C139.757756,62.4822787 140,63.4355168 140,64.5193914" id="Fill-11" fill="#00D990"></path>
                <path d="M141.15874,68.1547597 C141.041439,67.9669698 140.989747,67.7485619 141.001676,67.5015773 C141.015593,67.2545927 141.150787,67.0423084 141.413223,66.8688068 C141.596132,66.7483763 141.786995,66.6993876 141.989786,66.7197996 C142.192577,66.7402115 142.38344,66.8422713 142.566349,67.0300612 C142.930181,67.4444238 143.339739,67.7730562 143.789061,68.0139172 C144.238383,68.2547783 144.783136,68.3752088 145.421331,68.3752088 C145.681779,68.3629616 145.950179,68.3180553 146.222556,68.2445723 C146.49692,68.1710893 146.731522,68.0363704 146.92636,67.8424569 C147.123187,67.6485433 147.220606,67.3648172 147.220606,66.9912785 C147.220606,66.6565225 147.117223,66.3870848 146.908467,66.1870477 C146.699711,65.9849694 146.423359,65.8216738 146.087361,65.6951197 C145.747388,65.5685656 145.381569,65.4522175 144.991891,65.3440341 C144.57438,65.2236036 144.15488,65.0888848 143.731405,64.9419187 C143.305941,64.7949527 142.926204,64.6051215 142.586231,64.3703841 C142.246257,64.1356467 141.969905,63.8315086 141.755184,63.4559287 C141.540464,63.0823901 141.433104,62.62108 141.433104,62.0719985 C141.433104,61.4433104 141.606073,60.9023938 141.952011,60.4451661 C142.295961,59.9899796 142.747271,59.6368528 143.299976,59.3817035 C143.85467,59.1265541 144.457079,59 145.107204,59 C145.48694,59 145.88457,59.0510299 146.302082,59.1510484 C146.719593,59.251067 147.123187,59.408239 147.514853,59.6225645 C147.90453,59.83689 148.242515,60.1185749 148.530797,60.465578 C148.660026,60.6390796 148.735576,60.8472815 148.755458,61.0881425 C148.773351,61.3290035 148.665991,61.543329 148.433377,61.7311189 C148.276314,61.8637966 148.08744,61.9250325 147.864767,61.9107441 C147.644082,61.8984969 147.461173,61.8250139 147.318026,61.690295 C147.069507,61.3698274 146.751403,61.1187604 146.359738,60.9370941 C145.968073,60.7574689 145.526703,60.6656151 145.031654,60.6656151 C144.783136,60.6656151 144.526664,60.7043978 144.258264,60.7758397 C143.989864,60.8513639 143.765203,60.9799592 143.584282,61.1677491 C143.401372,61.3555391 143.309917,61.6290592 143.309917,61.9903507 C143.309917,62.3271479 143.417277,62.5945444 143.631997,62.7945816 C143.846717,62.9946187 144.131023,63.1619967 144.482925,63.2967155 C144.834827,63.4314344 145.21854,63.5498237 145.636052,63.6580071 C146.041634,63.7661904 146.441252,63.8927445 146.838882,64.0397105 C147.236512,64.1866766 147.594379,64.3765077 147.914471,64.6112451 C148.234563,64.8459826 148.493022,65.1460382 148.697801,65.5134533 C148.898604,65.8829096 149,66.3462609 149,66.9096307 C149,67.5648543 148.813114,68.1241418 148.44133,68.5854518 C148.069546,69.0467619 147.602331,69.3998887 147.03372,69.6387085 C146.467098,69.8816107 145.870653,70 145.246374,70 C144.502807,70 143.763215,69.8632399 143.0276,69.5897198 C142.289997,69.3161997 141.667706,68.8365188 141.15874,68.1547597" id="Fill-13" fill="#00D990"></path>
                <path d="M270.256522,26.2962963 L272.709961,21.3298611 L263.945924,21.3298611 L263.945924,14.1860532 L258.746433,14.1860532 L258.746433,37.578125 C258.746433,41.9024884 261.234658,46 267.070529,46 C269.049242,46 271.111849,44.962963 271.991732,44.3087384 L271.991732,38.9351852 C270.510255,40.0329861 268.744352,41.0821759 267.299708,41.0821759 C264.848315,41.0821759 263.945924,39.3969907 263.945924,37.3512731 L263.945924,26.2962963 L270.256522,26.2962963 Z M243.080434,30.7421875 C241.326808,30.3836806 238.723994,30.0920139 238.723994,28.1111111 C238.723994,26.2962963 240.483758,25.2430556 242.906504,25.2430556 C245.994277,25.2430556 248.013914,27.1550926 248.296295,28.6579861 L253.280931,28.6579861 C252.863499,25.8729745 250.543065,20.7829861 242.998585,20.7829861 C236.900796,20.7829861 233.573613,24.234375 233.573613,28.3845486 C233.573613,32.6096644 236.65934,34.4568866 243.080434,35.5708912 C245.883781,36.0570023 248.378145,36.7233796 248.378145,38.4895833 C248.378145,39.9134838 247.078784,41.4933449 243.780248,41.4933449 C240.393724,41.4933449 238.013949,39.6461227 237.760216,37.713831 L232.67736,37.713831 C232.67736,41.1064815 235.574833,46 243.504006,46 C248.044608,46 253.483509,43.9704861 253.483509,38.2586806 C253.483509,33.3914931 249.728662,32.1032986 243.080434,30.7421875 L243.080434,30.7421875 Z M222.60373,45.4065394 L227.801175,45.4065394 L227.801175,21.3298611 L222.60373,21.3298611 L222.60373,45.4065394 Z M207.827845,23.6409144 L202.677464,21.3318866 L202.677464,45.4065394 L207.827845,45.4065394 L207.827845,33.8006366 C207.827845,28.7045718 210.426568,25.6076389 214.862812,25.6076389 C216.192867,25.6076389 218.251382,26.0208333 218.251382,26.0208333 L218.650398,21.2225116 C217.584308,20.9369213 216.542773,20.7850116 215.552394,20.7850116 C211.75253,20.7850116 209.254073,22.3243634 207.827845,23.6409144 L207.827845,23.6409144 Z M360.849619,45.4065394 L366,45.4065394 L366,11 L360.849619,11 L360.849619,45.4065394 Z M317.980932,41.2624421 C315.083459,41.2624421 310.35051,39.0810185 310.35051,33.3914931 C310.35051,29.6585648 313.356434,25.4739583 317.980932,25.4739583 C322.112286,25.4739583 325.6134,28.5 325.6134,33.3914931 C325.6134,37.5295139 322.793684,41.2624421 317.980932,41.2624421 L317.980932,41.2624421 Z M318.533416,20.7829861 C314.320212,20.7829861 311.148543,22.9947917 310.35051,23.6814236 L310.35051,11 L305.200129,11 L305.200129,45.4065394 L310.35051,43.099537 C311.148543,43.7881944 313.87004,46 318.533416,46 C324.641437,46 330.6717,41.2907986 330.6717,33.3914931 C330.6717,28.5 327.170587,20.7829861 318.533416,20.7829861 L318.533416,20.7829861 Z M343.667358,41.489294 C340.518198,41.489294 339.267946,39.5752315 339.267946,38.2627315 C339.267946,35.5992477 341.903501,34.8478009 344.142085,34.8478009 L350.99289,34.8478009 C350.99289,37.7462384 348.969161,41.489294 343.667358,41.489294 L343.667358,41.489294 Z M345.842509,20.7850116 C340.07621,20.7850116 336.059445,24.1128472 335.335077,29.2494213 L340.379053,29.2494213 C340.379053,27.0538194 343.047348,25.4719329 346.02667,25.4719329 C349.431611,25.4719329 350.99289,27.7505787 350.99289,30.4788773 L344.189149,30.4788773 C337.305604,30.4788773 334.256709,34.1875 334.256709,38.3072917 C334.256709,41.9592014 336.922957,45.9959491 343.313359,45.9959491 C347.242136,45.9959491 350.033205,44.1264468 350.99289,43.2534722 L356.051191,45.4065394 L356.051191,30.0231481 C356.051191,26.3185764 354.109311,20.7850116 345.842509,20.7850116 L345.842509,20.7850116 Z M287.735487,41.2907986 C283.366769,41.2907986 279.824731,37.7563657 279.824731,33.3935185 C279.824731,29.0326968 283.366769,25.4982639 287.735487,25.4982639 C292.102159,25.4982639 295.646244,29.0326968 295.646244,33.3935185 C295.646244,37.7563657 292.102159,41.2907986 287.735487,41.2907986 L287.735487,41.2907986 Z M287.735487,20.8356481 C280.637088,20.8356481 274.885112,26.4583333 274.885112,33.3935185 C274.885112,40.3307292 280.637088,45.9534144 287.735487,45.9534144 C294.831841,45.9534144 300.585862,40.3307292 300.585862,33.3935185 C300.585862,26.4583333 294.831841,20.8356481 287.735487,20.8356481 L287.735487,20.8356481 Z M222.60373,17.7792245 L227.801175,17.7792245 L227.801175,13.2381366 L222.60373,13.2381366 L222.60373,17.7792245 Z M83.8626523,26.4117477 C81.3416871,25.8912037 78.0022266,25.4861111 77.63595,22.7456597 L72.1008761,22.7456597 C72.8518454,27.9895833 74.8346501,29.838831 83.8626523,31.6313657 C88.1249662,32.4780093 91.4378256,32.7008102 91.4378256,36.3061343 C91.4378256,39.9742477 87.7586896,41.1753472 84.771182,41.1753472 C80.9242545,41.1753472 76.4675481,38.9007523 76.4675481,35.2569444 L71,35.2569444 C71,40.4502315 75.8639078,46 84.4478764,46 C94.2043394,46 96.7253047,39.7048611 96.7253047,36.1238426 C96.7253047,29.3912037 91.6751892,28.0199653 83.8626523,26.4117477 L83.8626523,26.4117477 Z M109.946049,41.4933449 C106.794842,41.4933449 105.546637,39.5772569 105.546637,38.2627315 C105.546637,35.6012731 108.180145,34.8498264 110.41873,34.8498264 L117.269535,34.8498264 C117.269535,37.7482639 115.245805,41.4933449 109.946049,41.4933449 L109.946049,41.4933449 Z M112.119153,20.787037 C106.352855,20.787037 102.336089,24.1148727 101.611721,29.2534722 L106.655698,29.2534722 C106.655698,27.0558449 109.323992,25.4739583 112.305361,25.4739583 C115.708255,25.4739583 117.269535,27.7505787 117.269535,30.4788773 L110.465793,30.4788773 C103.582248,30.4788773 100.533354,34.1915509 100.533354,38.3093171 C100.533354,41.9612269 103.199602,46 109.592049,46 C113.51878,46 116.311895,44.1284722 117.269535,43.2554977 L122.329881,45.4065394 L122.329881,30.0251736 C122.329881,26.3185764 120.388001,20.787037 112.119153,20.787037 L112.119153,20.787037 Z M141.537918,20.787037 C137.905845,20.787037 135.286661,22.3243634 133.813369,23.6429398 L128.662988,21.3318866 L128.662988,45.4065394 L133.813369,45.4065394 L133.813369,33.802662 C133.813369,30.1061921 135.376695,25.6116898 140.848336,25.6116898 C145.464649,25.6116898 146.31793,29.921875 146.31793,31.7974537 L146.31793,45.4065394 L151.470357,45.4065394 L151.470357,31.1634838 C151.470357,27.3920718 149.530524,20.787037 141.537918,20.787037 L141.537918,20.787037 Z M181.877455,40.9910301 C178.443867,40.9910301 170.383736,38.3052662 170.383736,29.3425926 C170.383736,27.7546296 171.063087,24.6799769 172.354263,22.7456597 L166.391525,22.7456597 C165.642602,24.234375 165.049193,27.0902778 165.049193,29.3425926 C165.049193,34.9652778 169.286952,46 181.877455,46 C191.27378,46 196.60423,39.109375 197.655996,34.0295139 L192.446274,34.0295139 C191.965408,36.4560185 188.501127,40.9869792 181.877455,40.9910301 L181.877455,40.9910301 Z M295.284059,11.1762153 L288.341174,11.1762153 L284.400119,18.0121528 L289.867667,18.0121528 L295.284059,11.1762153 Z" id="Fill-15" fill="#171669"></path>
                <path d="M74.1127135,19.4825298 C74.1210626,19.5118095 74.1273245,19.5391372 74.1356736,19.5684169 C74.1544592,19.6367363 74.1774194,19.7050556 74.2003795,19.773375 C74.6804554,21.1397619 75.886907,22.0747609 76.4943074,22.474917 C76.6132827,22.5490923 76.7301708,22.6232676 76.8574953,22.6935389 C76.4796964,19.4844817 79.3163188,17.6047238 83.1005693,17.6047238 C88.256167,17.6047238 90.5563567,21.3427679 90.5563567,23 C91.8003795,23 94.616129,22.9941441 96,23 C95.4155598,19.2443881 92.6791271,13 83.1944972,13 C79.0616698,13 76.302277,14.2824517 74.9559772,15.9748194 C74.9538899,15.9767714 74.9518027,15.9806754 74.9518027,15.9806754 C74.313093,16.8746828 74.0396584,17.6945149 74.0041746,18.4304119 C74,18.4889713 74,18.5455788 74,18.6041382 C74,18.6470818 74,18.6919774 74,18.7368729 C74.0125237,18.9867265 74.0500949,19.2365801 74.1127135,19.4825298" id="Fill-17" fill="#00D990"></path>
                <path d="M182.0982,13 C174.086495,13 168.080294,18.2850491 172.495285,23.2803932 C174.391546,20.6896017 177.429687,18.1153647 182.0982,18.1153647 C187.982793,18.1153647 191.92578,21.6952923 192.739936,25 L198,25 C197.266229,21.2793585 193.018192,13 182.0982,13" id="Fill-19" fill="#00D990"></path>
                <g id="Group-23">
                    <mask id="mask-2" fill="white">
                        <use xlink:href="#path-1"></use>
                    </mask>
                    <g id="Clip-22"></g>
                    <path d="M37.3549224,36.7336069 C37.1315936,36.7706471 36.9267047,36.8220918 36.7361581,36.8817677 C35.7772784,37.1822051 34.7159542,36.8509009 34.1135811,36.0421895 C33.1178213,34.7107994 31.3229951,34.303357 31.3229951,34.303357 C32.1343549,33.2806355 32.8022925,32.2270471 33.2550968,31.4512603 C33.6464345,30.7845364 33.4784257,29.9305536 32.8637592,29.4634353 L31.7696528,28.6300304 C32.3925149,28.1279297 33.1321635,27.04759 34.4209143,26.4919867 C34.3635454,26.7121702 34.3287143,26.959105 34.3512521,27.2348489 C34.3696921,27.4673791 34.6503898,27.5723264 34.8204475,27.409761 C36.3284294,25.9734237 38.0658867,26.3973284 38.0658867,26.3973284 C37.6991356,28.9819125 39.7439262,30.7372072 39.7439262,30.7372072 C39.7439262,30.7372072 41.0388236,31.8010846 40.7950059,33.5337436 C40.5532371,35.2664027 39.4242996,36.3776092 37.3549224,36.7336069 M35.2568607,50.6710176 C34.0439189,49.3108185 31.435684,47.5452348 29.9461422,46.8455863 C29.9338488,46.8394129 29.9174577,46.8311817 29.9051644,46.8250084 C29.6244667,46.6953676 29.3724534,46.5904203 29.1942002,46.5533801 C28.6799292,44.7342939 28.684027,42.5797879 28.7434447,41.345114 C28.792618,41.3945009 28.8458891,41.4397723 28.8971113,41.4871015 C29.0261913,41.6043955 29.1614179,41.7175739 29.3007423,41.824579 C30.2780621,42.5715567 31.4971506,43.0201549 32.8248303,43.0139815 C33.7263412,43.009866 34.5766298,42.793798 35.3347185,42.4213381 C35.0929497,43.4152506 34.6954653,45.6767616 35.4965807,47.436172 C36.0026561,47.4320564 36.2935982,47.2489131 36.2935982,47.2489131 C36.2935982,47.2489131 36.0846116,49.6853363 35.2568607,50.6710176 M29.5875867,34.7704753 C29.7187156,33.6613266 29.7351067,32.4101904 29.72896,31.6920217 C29.7228133,31.1611119 30.0608799,30.6713579 30.573102,30.5376016 C30.8066753,30.4738101 31.0648352,30.4882146 31.306604,30.6734157 C32.1486971,31.3195617 31.3762662,33.3485426 29.5875867,34.7704753 M30.4972931,36.8776522 C29.3458179,36.5648681 29.214689,37.0155241 29.2945957,37.2192453 C29.3581112,37.3756373 29.4134312,37.5731851 29.2904979,37.6308033 C29.0343869,37.7522129 28.8868669,37.2151297 29.177809,36.6718732 C29.4687512,36.1306744 30.2043021,35.782908 31.1918663,35.9866292 C32.1814794,36.1882926 33.4435946,36.9435014 33.8861545,38.2255045 C34.3266654,39.5054498 33.6116034,39.6227438 32.5215948,39.229706 C31.6446706,38.9148641 31.5893506,38.690565 31.6876973,38.5465197 C31.7676039,38.4271679 32.0216661,38.495075 32.1220616,38.2152156 C32.2531904,37.848929 31.6487684,37.1883784 30.4972931,36.8776522 M27.2395607,35.5935913 L27.2395607,35.5915335 C27.2395607,35.5915335 27.1698985,35.8199482 27.0858941,36.3076444 C27.0797474,36.340569 27.0736007,36.3755514 27.0695029,36.4105339 C26.8769074,37.5855319 26.6330897,40.0939777 26.9547652,44.3927008 C27.1084318,46.4607796 26.573672,51.0640555 25.5861078,53.9099789 C23.5761483,53.644524 21.6399489,53.1444811 19.8082427,52.4283702 C20.8736646,49.864364 23.0659751,44.948304 23.3097928,41.6332045 C23.5249261,38.7111429 22.7135663,37.4188509 22.7135663,37.4188509 C22.5947308,35.1635132 21.6973177,34.6346612 21.6973177,34.6346612 C21.9411354,33.6613266 21.2506601,33.0439897 20.3450514,33.6613266 C19.1485006,34.4762114 18.076932,36.7109712 18.076932,36.7109712 C18.076932,36.7109712 17.6200299,36.6121973 16.9746301,36.7480114 C16.7861324,32.982256 18.7305274,29.0621663 22.5373619,28.0147512 C24.537077,27.2616001 26.848223,27.0105498 28.591827,25.5865592 C29.5978312,24.8025412 30.3764087,23.7839353 30.8927286,22.6439197 C31.1631818,23.2262742 31.5155906,23.7715885 31.9233194,24.2778048 C29.3970401,26.0763132 27.747685,29.0333572 27.7620272,32.3813813 C27.7640761,32.9616781 27.821445,33.5296281 27.9177427,34.0831735 C27.6227028,34.5461763 27.3952762,35.0565081 27.2395607,35.5935913 M15.1859506,50.0536807 C15.3846928,48.6564414 15.5567994,45.8372692 15.2863461,44.9812287 C14.9175462,43.8082884 14.2516575,41.256629 15.3088839,39.4540051 C16.3865992,37.6184565 17.4991455,37.8077732 17.4991455,37.8077732 C16.8947235,38.7584721 16.2882525,40.0672265 15.9010126,41.2113576 C15.857986,41.3409984 16.0362392,41.4253678 16.1079503,41.3080737 C17.0934656,39.6968243 19.416905,35.9578201 20.5929669,34.5791009 C20.6769713,34.4823848 20.8367846,34.5688119 20.7999046,34.6922793 C20.3634914,36.1594835 19.2857762,38.9045752 18.7653585,40.2688899 C18.7161852,40.3985306 18.8923896,40.4911312 18.9661496,40.3738371 C19.6709672,39.3037864 20.7999046,37.2213031 21.3305667,35.7870235 C22.0005532,36.6224862 21.1728023,39.4786986 20.0827937,41.6043955 C20.0213271,41.7196317 20.1708959,41.8307524 20.2630959,41.7381518 C21.4371089,40.5878473 22.2095398,38.5300574 22.2095398,38.5300574 C22.3037887,38.9807134 22.3550109,39.435485 22.3795975,39.8984877 C22.3775487,40.1433647 22.3058376,41.0055786 21.4514511,42.4871873 C21.3879356,42.5962502 21.5231622,42.715602 21.6215089,42.6353482 C21.8919621,42.4110491 22.1029976,42.1538254 22.2669087,41.9089484 C21.9226954,44.4132787 19.9434693,48.8354691 18.335092,51.7904553 C17.2450834,51.2801234 16.1858081,50.7101156 15.1859506,50.0536807 M9.68058762,26.930296 C9.24417441,26.7492105 8.30168577,26.3314791 7.28543715,25.6894487 C6.87975726,25.4342827 6.36753518,25.2408505 5.84301976,25.3025842 C5.45373098,25.3478556 5.43529098,25.0350715 5.75286868,24.8087146 C6.09708192,24.5658954 6.11961969,24.0781992 5.81228644,23.7489528 C5.44553543,23.3579728 4.59319788,23.1439626 4.39240682,23.0493043 C4.18956687,22.9546459 4.18751799,22.8867389 4.92102001,22.9032012 C5.2222066,22.9093746 5.71189091,22.983455 6.11961969,23.2077541 C6.59905956,23.4690934 6.93712614,23.845669 7.28338827,24.0905459 C7.28543715,24.0926037 7.28543715,24.0946615 7.28953493,24.0967193 C7.29363271,24.1008349 7.29977937,24.1028927 7.30387715,24.1070083 C7.32436603,24.1214128 7.3469038,24.1419907 7.36739269,24.1543374 C7.38788157,24.1666842 7.41246823,24.1769731 7.43295711,24.1872621 C9.40603658,25.5165943 11.9015826,26.0948333 14.2659997,25.7017954 C17.7921366,24.7202296 21.0211846,23.0369575 24.7071347,22.6953644 C25.0042235,23.6069653 24.9284146,24.7346342 24.7214769,25.6585818 C23.6949839,25.8705342 21.9964554,26.352057 20.2630959,27.164884 C19.1177673,27.7019672 18.1199587,27.9344974 17.6794477,28.0188668 C14.8950084,28.4736384 12.2437469,27.9324396 9.68058762,26.930296 M22.4697486,17.8533849 C22.7688863,17.8060557 23.0045085,17.6743571 23.1622729,17.5426586 C23.3036462,17.421249 23.2565218,17.1928343 23.0823662,17.1352162 L22.5271175,16.9582463 C22.5435086,16.853299 22.5558019,16.7483517 22.5783397,16.6454622 C22.6213664,16.441741 22.426722,16.2935802 22.279202,16.1845173 C22.1992954,16.1124946 22.1255354,16.0096051 22.1193887,15.9149468 C22.1111932,15.8881955 22.1193887,15.8490975 22.1234865,15.8223463 C22.4717975,15.6227407 22.9307485,15.3202455 23.1151485,14.8634162 C23.1745662,14.7193709 23.2032507,14.5732678 23.2216906,14.4271647 C23.3097928,14.5074185 23.4183839,14.5691522 23.5577083,14.5856146 C24.2850637,14.6761573 24.2727704,14.0855716 24.2727704,14.0855716 L25.0779835,14.2913506 C25.0042235,13.5999332 24.1723748,13.161624 23.5925394,13.2892069 C23.4286284,13.3262472 23.3097928,13.4044432 23.215544,13.4970437 C23.1889084,13.0896013 23.1807129,12.6862745 23.3876506,12.2973522 C23.5720506,11.8240606 23.8220149,11.3425377 24.0719793,10.889824 C24.115006,10.8548415 24.1539348,10.8157435 24.1867171,10.7704722 C24.4981481,11.4371961 25.2869701,11.6841309 26.0430099,11.5977037 C25.3791701,12.9085158 24.8710458,14.6473483 26.5531831,15.3325923 C26.7867564,15.4107883 27.1330185,15.2255872 27.2170229,15.0938887 C29.4031868,12.0524752 30.5280265,16.9047437 27.3665918,16.4479144 C27.1514585,16.4849546 27.1104807,16.5919597 27.1555563,16.7216004 C27.1535074,16.7216004 27.1514585,16.7216004 27.1473607,16.7195427 C27.1658007,16.7627562 27.1903874,16.7977387 27.2108762,16.8388945 C27.2108762,16.8409523 27.2129251,16.8450678 27.214974,16.8491834 C28.0140405,18.518051 29.2269824,19.3247046 30.2883065,19.7095113 L30.2883065,19.7115691 C30.0444888,21.4936151 29.0958535,23.2736034 27.6349961,24.325134 C27.1862896,24.6729005 26.700703,24.932182 26.1925787,25.1482499 C26.315512,24.2963249 26.3298543,23.4485155 26.1167699,22.6068795 C26.1167699,22.6068795 26.1188188,22.6068795 26.1188188,22.6048217 C26.1556988,22.4690075 26.0061299,22.2529396 26.0368632,22.3064421 C26.0348143,22.3064421 26.0327654,22.3023266 26.0286677,22.298211 C25.985641,22.1644546 25.9323699,22.0286405 25.8770499,21.896942 C25.8299255,21.5327131 25.6578189,21.2158135 25.4180989,20.946243 C25.7336278,20.7836776 26.0491566,20.5614363 26.2478987,20.260999 C26.3441965,20.1148959 26.2028232,19.9276371 26.0348143,19.977024 C24.9345613,20.3062704 24.1436904,20.094318 24.0350993,20.0613934 C22.9327974,19.7198003 22.5107264,18.8493552 22.4697486,17.8533849 M53.6640736,23.6933925 C53.2420026,23.5205382 52.9182782,23.4814401 52.6765094,23.502018 C52.3486873,23.5308271 52.0679896,23.757184 51.949154,24.0679103 L43.7679429,43.6663009 C43.5425652,43.5901627 43.3110408,43.528429 43.0569787,43.5160823 C41.9014056,43.7300924 41.1699525,44.507937 40.5614327,45.5100807 C40.5347971,45.5965078 40.5409438,45.6788194 40.5409438,45.761131 C40.2356594,45.8516738 39.9242284,45.8928296 39.6537751,45.8269803 C38.5699132,44.7795652 38.0863755,43.3926149 37.8732912,42.431627 C38.5842554,43.12716 39.5882107,43.3926149 40.2397572,43.4769843 C40.4651349,43.5057933 40.6310949,43.254743 40.5102104,43.0571951 C40.389326,42.8617051 40.2643438,42.6044814 40.1721439,42.2896395 C40.9199881,42.8349538 42.2579122,42.7279488 42.9934631,42.6127125 C43.1942542,42.5818457 43.2926008,42.353431 43.179912,42.1826344 C43.069272,42.0118379 42.9729742,41.7710765 42.977072,41.4377145 C42.9873164,40.649581 44.0404451,39.787367 44.0404451,39.787367 L44.0302006,39.787367 C44.1367428,39.6927087 44.243285,39.5959926 44.3457294,39.4972187 C44.8845871,38.9395576 45.9745956,37.604052 46.2184134,35.7067697 C46.5462355,33.1592259 45.8414179,32.0480194 45.8414179,32.0480194 C45.8414179,32.0480194 46.4929644,32.1900069 46.8535687,31.4985895 C47.2694931,30.6981092 46.9969909,29.5354579 46.8289821,28.9901436 C45.4582758,25.1729434 41.821499,22.4463718 37.5495668,22.464892 C35.9924117,22.4710653 34.5274565,22.8517564 33.2223146,23.5040758 C32.3884171,22.5904171 31.7737506,21.4483438 31.6508173,20.2424789 C31.6610617,20.2342477 31.6610617,20.2342477 31.6692573,20.2260166 C32.0175683,20.3186171 32.5297904,20.339195 33.216168,20.0593356 C33.3288568,20.0120064 33.3186124,19.8556144 33.2059235,19.8144586 C32.9928391,19.7362626 32.8330258,19.5839861 32.7121414,19.4131896 C34.3594477,19.3123579 35.6686873,17.9439276 35.6604918,16.2627133 C35.6584429,15.7420925 35.5191185,15.2564541 35.2937407,14.8243182 C35.8244028,12.0133772 34.8696209,8.039785 30.4911465,6.65489242 C27.4014229,5.67538445 24.5801036,6.83597793 23.3610151,8.18588808 C22.5107264,9.12629805 22.2074909,10.762241 22.8201085,11.6820731 C22.5537531,12.4043573 22.4431131,13.1924908 22.5660464,13.8983127 C22.627513,14.6823307 22.1050465,14.8202026 21.5538955,15.2338184 C21.086749,15.6988789 21.3305667,16.4232209 21.65634,16.7812763 C21.1707534,18.6003626 21.7669799,20.5737831 23.8302105,21.1499642 C23.8220149,21.2940095 23.8220149,21.2528537 23.8158683,21.3989568 C21.1441179,21.7179142 18.4826119,22.5636659 16.0423859,23.6522367 C14.7700263,24.275747 13.3276089,24.6214557 11.9036315,24.5185662 C10.6333207,24.4547748 9.36710771,24.1131816 8.20743691,23.5390583 C8.01689029,23.4279376 7.75668147,23.2633144 7.49852154,23.0451887 C7.07645054,22.6912488 6.59496178,22.2467662 5.71189091,22.0121782 C4.70178896,21.7446655 3.01555386,21.9442711 2.35171403,22.0615651 C1.91325193,22.1397612 1.68172755,22.9772816 2.78402947,23.2550833 C2.91106055,23.2880079 3.03194496,23.3188747 3.15078049,23.3517994 C2.9725272,23.5555206 2.8147628,23.757184 2.76763837,23.8950559 C2.64675396,24.2407646 2.97662498,24.6049934 3.52572705,24.4239079 C3.83715808,24.3230762 4.16907799,24.0905459 4.48665568,23.7983398 C4.6772023,23.8765358 4.81652671,23.9423851 4.87799336,23.9814831 C5.17713105,24.1749153 5.15459328,24.6667271 4.34733128,24.6687849 C3.38435376,24.6729005 3.09136272,25.1750012 3.15282938,25.4939586 C3.24502935,25.9734237 3.80232698,25.7861648 4.4846068,25.9199211 C5.1689355,26.0495619 5.1873755,26.2656298 6.38392628,26.352057 C6.77731285,26.3808661 7.32026826,26.7985974 7.32026826,26.7985974 L7.35509936,26.8047708 C7.95747253,27.2410222 8.57623681,27.6484646 9.2277833,28.016809 C11.5942493,29.4593197 14.4647419,29.877051 17.1877145,29.4984177 C17.1774701,29.5601514 17.1672256,29.6218851 17.1549323,29.6856766 L16.9828257,30.8545012 C16.9807768,30.8730213 16.9848745,30.8853681 16.9848745,30.9038882 C16.0464837,32.7785348 15.7125149,34.9803699 16.0731192,37.0752 C15.544506,37.3509438 14.9810618,37.8077732 14.4647419,38.5629821 C12.7641646,41.05085 14.3541019,43.4337707 14.4585952,45.8166913 C14.4749863,46.1870935 14.2106797,48.2819236 14.0672576,49.247027 C8.0148414,44.7692763 4.02360692,37.64315 3.84945141,29.5560358 C3.84535363,29.3502568 3.71832256,29.1691713 3.52777594,29.0992065 L0.806852228,28.0929472 L0.247505711,27.8727637 C0.247505711,27.8727637 -0.000409777668,27.8007411 -0.000409777668,28.1114673 C-0.000409777668,28.4242514 -0.000409777668,29.0374728 -0.000409777668,29.0374728 L0.00163911067,29.035415 C0.0221279941,45.6212013 13.9053954,58.9453907 30.6386664,57.9473626 C32.5072526,57.8362419 34.3573988,57.4967066 36.1686161,57.0172416 C36.738207,56.8670229 37.3037002,56.7023997 37.8630467,56.5213142 C39.2542419,56.0665427 40.6310949,55.4533213 41.9423834,54.7886552 L41.9485301,54.7927707 C41.9936056,54.770135 42.0386811,54.7454416 42.0837567,54.7207481 C42.1165389,54.7042858 42.15137,54.6898812 42.1821033,54.6734189 L42.1800544,54.6693033 C42.2046411,54.6548988 42.2312767,54.6425521 42.2579122,54.6281475 C42.3665033,54.5684716 42.462801,54.5211425 42.5488543,54.4305997 C42.6000766,54.379155 42.647201,54.3235946 42.6963743,54.2680343 C42.921752,54.0704865 43.179912,53.8214939 43.3950452,53.5292878 C43.5589563,53.3070464 42.6820321,52.3584053 42.33577,52.0003499 C42.3787966,51.9921187 42.4279699,51.979772 42.4689477,51.9715408 C42.3910899,51.9262695 41.2109303,51.4056486 41.2109303,51.4056486 C40.7191971,51.1155002 40.4139127,51.0270153 40.4507927,50.4631809 C40.4466949,50.2800376 40.5470904,50.1709747 40.6597793,50.0680852 C41.5674368,50.0804319 42.3767477,50.3705803 43.0467342,50.3026732 C43.0672231,50.275922 43.0631253,50.236824 43.0344409,50.2183039 C42.3685522,49.7553011 41.6248057,49.3025874 40.8134459,49.3169919 C40.7786148,49.0535948 40.7171482,48.7819665 40.7642726,48.572072 C40.7868104,48.4794714 40.9076948,48.3683508 41.0019436,48.2963281 C41.417868,48.1296471 41.9055034,47.9238682 42.2722544,48.0061798 C42.462801,48.0555667 42.6635921,48.1440517 42.866432,48.2366522 C43.2536719,48.4156799 43.6593518,48.6276323 44.0629828,48.7078861 C43.7966273,48.1769763 43.0836142,47.7551294 42.518121,47.3909006 C42.1575167,47.2489131 41.821499,47.2468553 41.5018724,47.3188779 C41.3748413,47.347687 41.251908,47.3847272 41.1289747,47.4320564 C41.1166814,47.3229935 41.1125836,47.2159884 41.1310236,47.1172145 C41.1330725,47.1151567 41.1330725,47.1069256 41.1330725,47.10281 C41.1453658,46.9032044 41.3645969,46.7982571 41.4977746,46.6891942 C41.9690189,46.4772419 42.5345121,46.2056136 42.9197031,46.2364805 C43.4974896,46.4113926 44.1162539,46.9299557 44.6489649,47.2859533 C44.7001871,47.3271091 44.7718982,47.2612598 44.7370671,47.2077573 C43.8130185,45.7734778 42.9996098,45.2590303 41.7538857,45.7487843 C41.6473435,45.7919979 41.5387524,45.8310959 41.4219658,45.8907718 C41.4096724,45.8516738 41.399428,45.8125758 41.3953302,45.77142 C41.5428502,45.5635832 41.7395435,45.3001861 41.9690189,45.0553091 C42.4013344,44.5943642 42.9442898,44.2054419 43.4872452,44.3947585 C43.4933919,44.3988741 43.4974896,44.3968163 43.5015874,44.3988741 C44.0015162,44.6025953 44.4338316,44.9462462 44.8210715,45.3454575 C45.161187,45.6973395 45.4644225,46.0883196 45.7410224,46.4772419 L45.9008357,46.0697995 L46.0524534,45.6767616 L46.0975289,45.5615254 L54.6270511,25.0968052 C54.7602288,24.7449231 54.6639311,24.3436541 54.3770867,24.1028927 C54.2193223,23.9650208 53.9898468,23.8271488 53.6640736,23.6933925 M36.0026561,31.150823 C34.7261987,30.8318655 34.3758388,31.9945168 35.6154162,32.8855398 C37.0803714,33.9350127 36.9492425,33.0069494 36.9492425,33.0069494 C36.9492425,33.0069494 38.1027667,34.0234976 38.4305888,33.3608893 C38.7174332,32.7785348 37.2770647,31.4718382 36.0026561,31.150823 M54.9507755,16.5384571 C50.3079945,6.75983971 40.3811305,0 28.8766225,0 C17.4950477,0 7.65628594,6.61579442 2.95408721,16.2256731 C2.82090946,16.4973013 2.95613609,16.8286055 3.23888269,16.931495 L5.92702419,17.9254075 C6.16469523,18.0138925 6.42490405,17.9068874 6.5396418,17.6805305 C10.6661029,9.4822957 19.105474,3.84806705 28.8766225,3.84806705 C39.7603173,3.84806705 49.0089993,10.8260325 52.4613761,20.5655519 C52.6170916,21.0038612 53.2174159,21.034728 53.399767,20.6067077 L54.9569221,16.9664774 C55.0163399,16.8306633 55.014291,16.6722135 54.9507755,16.5384571" id="Fill-21" fill="#171669" mask="url(#mask-2)"></path>
                </g>
            </g>
        </g>
    </g>
</svg>